:SAMPLES-PER-SECOND 30
:FULLY-SPECIFIED
:DEGREES
487
root  -25.3405 27.3524 29.8016 -45.2424 0.391771 81.9386
Spine  -11.8435 -5.71012 -5.4523
Spine1  -11.8556 15.7467 -8.19213
Neck  3.97569e-016 0 -2.38542e-015
Head  0.222051 -4.04957 -10.1774
R_Clavicle  1.12103 -0.536835 5.79404
R_UpperArm  46.8194 -15.1611 93.5969
R_Forearm  39.0036 -31.0481 27.3325
R_Hand  -0.353831 5.10481 -12.213
L_Clavicle  -2.1462 -8.23873 11.266
L_UpperArm  -58.9827 -17.6428 56.0021
L_Forearm  -2.95929 19.5838 24.0784
L_Hand  -0.283331 0.739929 -4.99124
L_Thigh  -13.04 2.80397 -23.7217
L_Calf  -6.26453 3.98976 -30.8716
L_Foot  -2.07249 0.782581 -11.0935
L_Toe0  0.505156 0.034446 -6.1361
R_Thigh  19.3781 12.0919 20.1856
R_Calf  10.2158 0.368772 1.24445
R_Foot  -8.73377 -25.6315 3.93803
R_Toe0  4.09307 -0.528399 -14.024
488
root  -24.4272 28.062 30.5666 -43.6363 2.05226 82.825
Spine  -11.2759 -6.66587 -6.19971
Spine1  -11.1273 16.4439 -7.63886
Neck  3.97569e-016 0 -2.38542e-015
Head  -1.65587 -6.03143 -9.41749
R_Clavicle  0.905207 -2.01271 4.84462
R_UpperArm  43.4299 -15.9004 86.1501
R_Forearm  38.653 -30.0652 24.8492
R_Hand  -0.307982 4.05755 -10.8858
L_Clavicle  -1.99455 -8.81499 10.3951
L_UpperArm  -52.732 -12.9659 52.8642
L_Forearm  -3.26442 10.5793 12.4461
L_Hand  -0.223898 2.61467 -3.04395
L_Thigh  -13.483 3.06226 -25.366
L_Calf  -5.17114 3.01856 -22.934
L_Foot  -2.16104 0.823231 -11.5545
L_Toe0  0.505156 0.034446 -6.1361
R_Thigh  19.3206 11.0014 20.9318
R_Calf  10.6067 2.5375 7.96724
R_Foot  -7.50064 -28.572 -1.65064
R_Toe0  4.12736 -0.556719 -13.7511
489
root  -23.063 29.4962 31.6663 -41.8145 4.43048 84.49
Spine  -10.7051 -6.95039 -7.18513
Spine1  -10.5796 16.5218 -6.77759
Neck  3.97569e-016 0 -2.38542e-015
Head  -4.02714 -7.66286 -8.28919
R_Clavicle  0.743567 -4.90451 4.22121
R_UpperArm  40.4267 -14.6296 74.5358
R_Forearm  36.0622 -29.9404 23.4734
R_Hand  -0.332407 3.71342 -10.8346
L_Clavicle  -1.44793 -7.72204 7.89739
L_UpperArm  -44.02 -9.05069 47.9758
L_Forearm  -3.96191 3.64388 4.20401
L_Hand  -0.189654 2.8351 -2.45851
L_Thigh  -11.2164 1.39072 -24.6365
L_Calf  -2.83807 1.62286 -12.253
L_Foot  -1.74663 0.817399 -9.50337
L_Toe0  0.505156 0.034446 -6.1361
R_Thigh  17.9141 9.57706 20.5094
R_Calf  5.59722 6.72532 21.541
R_Foot  -1.7141 -29.7967 -18.5357
R_Toe0  2.76093 -0.523186 -11.8657
490
root  -21.5475 30.9316 32.9779 -39.3329 7.05195 86.1917
Spine  -10.1725 -7.11059 -7.82536
Spine1  -10.1133 17.1473 -5.84921
Neck  3.97569e-016 0 -2.38542e-015
Head  -5.71392 -11.1026 -5.38843
R_Clavicle  0.646724 -7.7335 3.8702
R_UpperArm  37.5531 -10.2743 60.9612
R_Forearm  30.1489 -31.3549 22.7903
R_Hand  -0.391264 4.38974 -12.0446
L_Clavicle  -0.901445 -2.45586 6.29233
L_UpperArm  -34.1093 -6.75738 40.6192
L_Forearm  -3.78546 1.329 1.52133
L_Hand  -0.186463 3.54116 -2.18012
L_Thigh  -5.23676 -1.83994 -22.9791
L_Calf  -0.393848 0.186501 -1.69131
L_Foot  -0.154296 1.63903 -2.65689
L_Toe0  0.505156 0.034446 -6.1361
R_Thigh  13.9268 7.14286 19.0025
R_Calf  -2.1158 11.0011 36.2385
R_Foot  4.50194 -20.7635 -36.0159
R_Toe0  -4.02781 0.0895941 -12.9893
491
root  -20.108 31.7298 34.3078 -37.5865 9.16775 87.3273
Spine  -9.10521 -6.5739 -7.03643
Spine1  -9.17013 17.2761 -6.16512
Neck  3.97569e-016 0 -2.38542e-015
Head  -7.97377 -14.9875 -1.0139
R_Clavicle  0.534525 -9.22493 3.10568
R_UpperArm  31.5782 -4.26721 48.011
R_Forearm  24.9198 -32.4114 21.8063
R_Hand  -0.479551 5.27217 -13.5111
L_Clavicle  -0.389456 3.45443 2.56429
L_UpperArm  -24.4911 -4.96621 31.5872
L_Forearm  -1.69639 3.91227 4.51818
L_Hand  -0.104791 5.56751 -0.871806
L_Thigh  1.80507 -5.22693 -21.1779
L_Calf  2.12428 -0.848647 5.85781
L_Foot  2.16408 2.4422 6.88743
L_Toe0  0.505156 0.034446 -6.1361
R_Thigh  6.34121 4.87941 18.6026
R_Calf  -4.82284 12.4243 39.5612
R_Foot  4.20079 -7.25469 -35.7245
R_Toe0  -1.6049 -0.304346 -17.7372
492
root  -18.7013 31.895 35.5341 -38.1784 10.5851 87.8094
Spine  -7.19353 -4.81455 -4.4166
Spine1  -7.50181 14.7685 -7.82523
Neck  3.97569e-016 0 -2.38542e-015
Head  -11.9156 -15.4887 2.00066
R_Clavicle  0.361967 -9.77051 1.61451
R_UpperArm  19.986 2.38774 36.3961
R_Forearm  25.2103 -30.1 20.693
R_Hand  -0.661429 5.68224 -15.4235
L_Clavicle  -0.282838 8.64974 0.612553
L_UpperArm  -16.7168 -2.45519 23.3273
L_Forearm  1.77195 8.64802 10.1084
L_Hand  0.0947144 7.33639 1.03739
L_Thigh  5.40563 -7.85795 -17.9102
L_Calf  4.65464 -1.29761 9.21178
L_Foot  3.82507 2.66018 13.6
L_Toe0  0.505156 0.034446 -6.1361
R_Thigh  2.56728 4.69281 19.8653
R_Calf  -5.69117 8.37703 27.3538
R_Foot  2.25406 -1.77652 -22.5157
R_Toe0  -2.50606 -0.223077 -16.8202
493
root  -17.3461 31.3694 36.6689 -40.5924 12.4638 87.0934
Spine  -5.43879 -3.75011 -0.919391
Spine1  -5.51633 9.4357 -9.16662
Neck  3.97569e-016 0 -2.38542e-015
Head  -16.3968 -11.9706 1.57935
R_Clavicle  0.181918 -8.99158 0.13005
R_UpperArm  8.49694 8.92441 24.27
R_Forearm  28.3953 -25.1159 20.3682
R_Hand  -0.922789 6.03332 -17.8954
L_Clavicle  -0.335813 12.0126 -0.0347604
L_UpperArm  -12.4032 0.828456 18.1012
L_Forearm  4.82335 12.3283 14.6146
L_Hand  0.24242 8.11423 2.23478
L_Thigh  3.87952 -10.4949 -12.5755
L_Calf  6.12287 -1.07845 7.80408
L_Foot  4.7619 2.87464 17.0526
L_Toe0  0.505156 0.034446 -6.1361
R_Thigh  -0.609961 5.23058 20.5096
R_Calf  -1.26321 2.02098 6.2206
R_Foot  0.379853 -2.725 -8.57078
R_Toe0  -4.52008 -0.0210351 -13.6314
494
root  -15.9074 30.3797 37.8714 -43.1909 14.5768 85.921
Spine  -4.17245 -2.91615 1.83383
Spine1  -3.82978 2.3032 -8.34212
Neck  3.97569e-016 0 -2.38542e-015
Head  -21.1189 -7.16866 -1.69668
R_Clavicle  0.0984612 -5.4337 -0.00937542
R_UpperArm  7.3714 14.0651 10.3313
R_Forearm  27.9105 -21.4747 19.2503
R_Hand  -1.13179 6.00967 -19.749
L_Clavicle  -0.387694 13.808 -0.0335943
L_UpperArm  -11.6247 3.94307 16.3975
L_Forearm  5.83237 13.5222 16.1197
L_Hand  0.199513 8.31253 1.86006
L_Thigh  0.099762 -12.7941 -5.93714
L_Calf  4.77869 -0.400558 3.11734
L_Foot  5.46278 2.42984 20.5998
L_Toe0  0.505156 0.034446 -6.1361
R_Thigh  -2.59043 5.26669 18.044
R_Calf  5.29301 -4.85522 -15.2876
R_Foot  -0.767804 -3.72452 -1.99827
R_Toe0  -1.49737 -0.122429 -12.7074
495
root  -14.4932 29.3043 39.0444 -44.9883 16.8039 85.0274
Spine  -2.77903 -1.0836 2.76725
Spine1  -2.64799 -6.19526 -5.76313
Neck  3.97569e-016 0 -2.38542e-015
Head  -26.9209 -4.91725 -4.45918
R_Clavicle  0.324278 0.452275 1.67144
R_UpperArm  15.4427 17.8496 -2.63694
R_Forearm  25.5521 -18.6648 16.2748
R_Hand  -1.19723 5.4054 -20.3089
L_Clavicle  -0.412538 14.732 -0.248683
L_UpperArm  -11.4862 5.52718 17.1851
L_Forearm  3.56859 12.8411 15.2555
L_Hand  0.0279122 8.47086 0.447252
L_Thigh  -2.82919 -14.781 -0.00451357
L_Calf  2.17459 0.242226 -1.48889
L_Foot  5.76558 0.203878 26.0948
L_Toe0  0.505156 0.034446 -6.1361
R_Thigh  -3.26408 3.77631 10.8485
R_Calf  8.99123 -10.1989 -33.8615
R_Foot  -1.0455 -3.2301 0.788788
R_Toe0  -1.79353 -0.286279 -17.7138
496
root  -13.2053 28.2852 40.0129 -46.2222 19.4707 84.0954
Spine  -0.888062 0.748727 2.13645
Spine1  -1.64135 -14.7541 -2.54455
Neck  3.97569e-016 0 -2.38542e-015
Head  -33.8723 -5.23107 -5.83088
R_Clavicle  0.862144 5.95434 3.95017
R_UpperArm  25.4075 21.3564 -10.3622
R_Forearm  25.5763 -14.14 12.0542
R_Hand  -1.18405 4.86542 -20.1398
L_Clavicle  -0.445105 15.7859 -0.638439
L_UpperArm  -10.168 5.11736 19.1171
L_Forearm  -2.4114 11.6505 13.7663
L_Hand  -0.0825944 8.40502 -0.456589
L_Thigh  -5.09142 -16.9055 5.15222
L_Calf  0.766031 0.795298 -5.45149
L_Foot  5.42718 -2.99332 31.9281
L_Toe0  0.505156 0.034446 -6.1361
R_Thigh  -2.75675 -0.135166 -1.26383
R_Calf  10.4357 -13.3269 -47.1804
R_Foot  -1.32769 -3.01738 3.16048
R_Toe0  -1.78853 -0.272788 -17.3235
497
root  -12.0298 27.6891 40.5498 -47.4069 21.4068 82.9004
Spine  1.54329 1.29509 1.24241
Spine1  -0.455765 -20.4669 0.484929
Neck  3.97569e-016 0 -2.38542e-015
Head  -40.44 -6.35157 -5.8666
R_Clavicle  1.23825 8.50592 5.1978
R_UpperArm  32.4343 24.6605 -12.2473
R_Forearm  27.4619 -8.36865 6.99346
R_Hand  -1.11298 4.26341 -19.3662
L_Clavicle  -0.491876 17.0878 -0.744948
L_UpperArm  -9.50432 4.39316 21.7333
L_Forearm  -10.5688 9.85813 11.5661
L_Hand  -0.110462 8.10014 -0.711491
L_Thigh  -7.27249 -17.6769 8.97217
L_Calf  0.663844 1.08518 -7.55144
L_Foot  4.83942 -4.79382 34.1043
L_Toe0  0.505156 0.034446 -6.1361
R_Thigh  -1.41188 -5.40974 -16.3853
R_Calf  11.6016 -14.3296 -52.3212
R_Foot  -1.56445 -3.76479 3.17936
R_Toe0  -1.78853 -0.272788 -17.3235
498
root  -11.0935 27.6312 40.4364 -48.5772 21.2696 81.5311
Spine  3.88647 0.822543 1.04686
Spine1  1.09475 -22.2613 1.67549
Neck  3.97569e-016 0 -2.38542e-015
Head  -44.8586 -6.94383 -3.75326
R_Clavicle  1.35022 8.42323 5.63561
R_UpperArm  33.8759 26.2622 -12.3538
R_Forearm  28.1341 -2.79456 2.29687
R_Hand  -0.878864 3.12625 -16.5221
L_Clavicle  -0.507396 17.6542 -0.429132
L_UpperArm  -10.756 5.2597 25.2175
L_Forearm  -17.6828 6.15696 7.14227
L_Hand  -0.1198 8.50212 -0.751832
L_Thigh  -8.48933 -16.0804 9.47305
L_Calf  1.92559 1.03438 -7.30708
L_Foot  4.33439 -5.18361 32.7612
L_Toe0  0.505156 0.034446 -6.1361
R_Thigh  0.558834 -10.4958 -31.9073
R_Calf  13.0148 -13.6677 -48.9291
R_Foot  -1.46387 -4.59429 0.888132
R_Toe0  -1.78853 -0.272788 -17.3235
499
root  -10.2769 28.0674 39.8266 -50.0354 19.5285 81.2782
Spine  5.81134 1.14061 0.775727
Spine1  2.93058 -22.5393 0.330248
Neck  3.97569e-016 0 -2.38542e-015
Head  -47.2583 -6.17021 0.615612
R_Clavicle  1.3653 8.08118 5.72999
R_UpperArm  31.4356 24.3907 -13.6711
R_Forearm  25.3106 2.18933 -1.84839
R_Hand  -0.54397 1.72701 -11.3224
L_Clavicle  -0.474814 16.8583 0.315529
L_UpperArm  -12.2271 7.39253 28.4911
L_Forearm  -21.7104 0.697658 0.787807
L_Hand  -0.00167399 9.73884 0.22866
L_Thigh  -8.12142 -12.4566 7.26094
L_Calf  3.78631 0.591103 -4.2569
L_Foot  3.08654 -6.45292 29.863
L_Toe0  0.505156 0.034446 -6.1361
R_Thigh  2.07006 -14.232 -44.1801
R_Calf  13.791 -11.616 -39.6082
R_Foot  -1.23421 -5.23685 -1.68459
R_Toe0  -1.78853 -0.272788 -17.3235
500
root  -9.20397 29.1846 38.9903 -51.8427 17.7895 83.9604
Spine  7.3877 3.28143 -1.41722
Spine1  4.76635 -22.9166 -2.14761
Neck  3.97569e-016 0 -2.38542e-015
Head  -48.3389 -3.93033 5.53185
R_Clavicle  1.23953 7.5971 5.3074
R_UpperArm  27.5905 19.5196 -15.1504
R_Forearm  20.2732 6.88828 -5.78899
R_Hand  -0.325687 0.161362 -5.66935
L_Clavicle  -0.442273 15.4605 1.16818
L_UpperArm  -12.693 9.25857 29.6379
L_Forearm  -23.467 -4.30227 -5.00406
L_Hand  0.235782 10.7706 1.88791
L_Thigh  -6.89008 -6.90703 5.13693
L_Calf  3.56847 -0.522824 3.69959
L_Foot  1.19025 -8.1989 23.7092
L_Toe0  0.505156 0.034446 -6.1361
R_Thigh  1.90162 -15.7862 -48.7806
R_Calf  12.4799 -8.90268 -29.0598
R_Foot  -1.13274 -5.47938 -2.70717
R_Toe0  -1.78853 -0.272788 -17.3235
